<mxfile host="app.diagrams.net" agent="Mozilla/5.0 (Windows NT 10.0; Win64; x64) AppleWebKit/537.36 (KHTML, like Gecko) Chrome/126.0.0.0 Safari/537.36" version="24.7.5">
  <diagram name="Pagina-1" id="GWz5S700PWX2qCfarbPv">
    <mxGraphModel dx="2082" dy="454" grid="1" gridSize="10" guides="1" tooltips="1" connect="1" arrows="1" fold="1" page="1" pageScale="1" pageWidth="1169" pageHeight="827" math="0" shadow="0">
      <root>
        <mxCell id="0" />
        <mxCell id="1" parent="0" />
        <mxCell id="yqYqqijZ5hUENa9ej6jt-20" value="AppConfig" style="swimlane;fontStyle=0;align=center;verticalAlign=top;childLayout=stackLayout;horizontal=1;startSize=26;horizontalStack=0;resizeParent=1;resizeLast=0;collapsible=1;marginBottom=0;rounded=0;shadow=0;strokeWidth=1;" vertex="1" parent="1">
          <mxGeometry x="-1140" y="150" width="370" height="242" as="geometry">
            <mxRectangle x="230" y="140" width="160" height="26" as="alternateBounds" />
          </mxGeometry>
        </mxCell>
        <mxCell id="yqYqqijZ5hUENa9ej6jt-21" value="+ DATABASE_ROOT_PATH: String" style="text;align=left;verticalAlign=top;spacingLeft=4;spacingRight=4;overflow=hidden;rotatable=0;points=[[0,0.5],[1,0.5]];portConstraint=eastwest;fontStyle=4" vertex="1" parent="yqYqqijZ5hUENa9ej6jt-20">
          <mxGeometry y="26" width="370" height="26" as="geometry" />
        </mxCell>
        <mxCell id="yqYqqijZ5hUENa9ej6jt-70" value="+ URL: String" style="text;align=left;verticalAlign=top;spacingLeft=4;spacingRight=4;overflow=hidden;rotatable=0;points=[[0,0.5],[1,0.5]];portConstraint=eastwest;fontStyle=4" vertex="1" parent="yqYqqijZ5hUENa9ej6jt-20">
          <mxGeometry y="52" width="370" height="26" as="geometry" />
        </mxCell>
        <mxCell id="yqYqqijZ5hUENa9ej6jt-71" value="+ START_DATE: LocalDate" style="text;align=left;verticalAlign=top;spacingLeft=4;spacingRight=4;overflow=hidden;rotatable=0;points=[[0,0.5],[1,0.5]];portConstraint=eastwest;fontStyle=4" vertex="1" parent="yqYqqijZ5hUENa9ej6jt-20">
          <mxGeometry y="78" width="370" height="26" as="geometry" />
        </mxCell>
        <mxCell id="yqYqqijZ5hUENa9ej6jt-22" value="" style="line;html=1;strokeWidth=1;align=left;verticalAlign=middle;spacingTop=-1;spacingLeft=3;spacingRight=3;rotatable=0;labelPosition=right;points=[];portConstraint=eastwest;" vertex="1" parent="yqYqqijZ5hUENa9ej6jt-20">
          <mxGeometry y="104" width="370" height="8" as="geometry" />
        </mxCell>
        <mxCell id="yqYqqijZ5hUENa9ej6jt-23" value="+ getURL(): String" style="text;align=left;verticalAlign=top;spacingLeft=4;spacingRight=4;overflow=hidden;rotatable=0;points=[[0,0.5],[1,0.5]];portConstraint=eastwest;fontStyle=0" vertex="1" parent="yqYqqijZ5hUENa9ej6jt-20">
          <mxGeometry y="112" width="370" height="26" as="geometry" />
        </mxCell>
        <mxCell id="yqYqqijZ5hUENa9ej6jt-72" value="+ configureRestTemplate(): RestTemplate" style="text;align=left;verticalAlign=top;spacingLeft=4;spacingRight=4;overflow=hidden;rotatable=0;points=[[0,0.5],[1,0.5]];portConstraint=eastwest;fontStyle=4" vertex="1" parent="yqYqqijZ5hUENa9ej6jt-20">
          <mxGeometry y="138" width="370" height="26" as="geometry" />
        </mxCell>
        <mxCell id="yqYqqijZ5hUENa9ej6jt-74" value="+ restTemplate(): restTemplate     {bean}" style="text;align=left;verticalAlign=top;spacingLeft=4;spacingRight=4;overflow=hidden;rotatable=0;points=[[0,0.5],[1,0.5]];portConstraint=eastwest;fontStyle=0" vertex="1" parent="yqYqqijZ5hUENa9ej6jt-20">
          <mxGeometry y="164" width="370" height="26" as="geometry" />
        </mxCell>
        <mxCell id="yqYqqijZ5hUENa9ej6jt-73" value="+ configureGson(): Gson" style="text;align=left;verticalAlign=top;spacingLeft=4;spacingRight=4;overflow=hidden;rotatable=0;points=[[0,0.5],[1,0.5]];portConstraint=eastwest;fontStyle=4" vertex="1" parent="yqYqqijZ5hUENa9ej6jt-20">
          <mxGeometry y="190" width="370" height="26" as="geometry" />
        </mxCell>
        <mxCell id="yqYqqijZ5hUENa9ej6jt-75" value="+ gSon(): Gson" style="text;align=left;verticalAlign=top;spacingLeft=4;spacingRight=4;overflow=hidden;rotatable=0;points=[[0,0.5],[1,0.5]];portConstraint=eastwest;fontStyle=0" vertex="1" parent="yqYqqijZ5hUENa9ej6jt-20">
          <mxGeometry y="216" width="370" height="26" as="geometry" />
        </mxCell>
        <mxCell id="yqYqqijZ5hUENa9ej6jt-28" value="" style="endArrow=none;html=1;rounded=0;startArrow=diamondThin;startFill=0;startSize=18;entryX=1;entryY=0.5;entryDx=0;entryDy=0;exitX=0;exitY=1;exitDx=0;exitDy=0;" edge="1" parent="1" source="yqYqqijZ5hUENa9ej6jt-87" target="yqYqqijZ5hUENa9ej6jt-70">
          <mxGeometry width="50" height="50" relative="1" as="geometry">
            <mxPoint x="-650" y="70" as="sourcePoint" />
            <mxPoint x="-450" y="288" as="targetPoint" />
          </mxGeometry>
        </mxCell>
        <mxCell id="yqYqqijZ5hUENa9ej6jt-52" value="Use" style="endArrow=open;dashed=1;endSize=10;endFill=0;html=1;rounded=0;exitX=0.5;exitY=0;exitDx=0;exitDy=0;entryX=0.51;entryY=0.988;entryDx=0;entryDy=0;entryPerimeter=0;" edge="1" parent="1" source="yqYqqijZ5hUENa9ej6jt-55" target="yqYqqijZ5hUENa9ej6jt-75">
          <mxGeometry x="-0.1861" y="-5" width="160" relative="1" as="geometry">
            <mxPoint x="-600" y="590" as="sourcePoint" />
            <mxPoint x="-925" y="450" as="targetPoint" />
            <mxPoint as="offset" />
          </mxGeometry>
        </mxCell>
        <mxCell id="yqYqqijZ5hUENa9ej6jt-55" value="&lt;&lt;uses&gt;&gt;&#xa;AppConfig is used by" style="swimlane;fontStyle=0;align=center;verticalAlign=top;childLayout=stackLayout;horizontal=1;startSize=35;horizontalStack=0;resizeParent=1;resizeLast=0;collapsible=1;marginBottom=0;rounded=0;shadow=0;strokeWidth=1;" vertex="1" parent="1">
          <mxGeometry x="-1041" y="460" width="180" height="355" as="geometry">
            <mxRectangle x="230" y="140" width="160" height="26" as="alternateBounds" />
          </mxGeometry>
        </mxCell>
        <mxCell id="yqYqqijZ5hUENa9ej6jt-56" value="" style="line;html=1;strokeWidth=1;align=left;verticalAlign=middle;spacingTop=-1;spacingLeft=3;spacingRight=3;rotatable=0;labelPosition=right;points=[];portConstraint=eastwest;" vertex="1" parent="yqYqqijZ5hUENa9ej6jt-55">
          <mxGeometry y="35" width="180" height="8" as="geometry" />
        </mxCell>
        <mxCell id="yqYqqijZ5hUENa9ej6jt-57" value="ReceptionistApplication" style="text;align=left;verticalAlign=top;spacingLeft=4;spacingRight=4;overflow=hidden;rotatable=0;points=[[0,0.5],[1,0.5]];portConstraint=eastwest;fontStyle=0" vertex="1" parent="yqYqqijZ5hUENa9ej6jt-55">
          <mxGeometry y="43" width="180" height="26" as="geometry" />
        </mxCell>
        <mxCell id="yqYqqijZ5hUENa9ej6jt-59" value="Menu" style="text;align=left;verticalAlign=top;spacingLeft=4;spacingRight=4;overflow=hidden;rotatable=0;points=[[0,0.5],[1,0.5]];portConstraint=eastwest;fontStyle=0" vertex="1" parent="yqYqqijZ5hUENa9ej6jt-55">
          <mxGeometry y="69" width="180" height="26" as="geometry" />
        </mxCell>
        <mxCell id="yqYqqijZ5hUENa9ej6jt-60" value="WCalendar" style="text;align=left;verticalAlign=top;spacingLeft=4;spacingRight=4;overflow=hidden;rotatable=0;points=[[0,0.5],[1,0.5]];portConstraint=eastwest;fontStyle=0" vertex="1" parent="yqYqqijZ5hUENa9ej6jt-55">
          <mxGeometry y="95" width="180" height="26" as="geometry" />
        </mxCell>
        <mxCell id="yqYqqijZ5hUENa9ej6jt-61" value="WEvent" style="text;align=left;verticalAlign=top;spacingLeft=4;spacingRight=4;overflow=hidden;rotatable=0;points=[[0,0.5],[1,0.5]];portConstraint=eastwest;fontStyle=0" vertex="1" parent="yqYqqijZ5hUENa9ej6jt-55">
          <mxGeometry y="121" width="180" height="26" as="geometry" />
        </mxCell>
        <mxCell id="yqYqqijZ5hUENa9ej6jt-62" value="WEventRest" style="text;align=left;verticalAlign=top;spacingLeft=4;spacingRight=4;overflow=hidden;rotatable=0;points=[[0,0.5],[1,0.5]];portConstraint=eastwest;fontStyle=0" vertex="1" parent="yqYqqijZ5hUENa9ej6jt-55">
          <mxGeometry y="147" width="180" height="26" as="geometry" />
        </mxCell>
        <mxCell id="yqYqqijZ5hUENa9ej6jt-63" value="WResourceRest" style="text;align=left;verticalAlign=top;spacingLeft=4;spacingRight=4;overflow=hidden;rotatable=0;points=[[0,0.5],[1,0.5]];portConstraint=eastwest;fontStyle=0" vertex="1" parent="yqYqqijZ5hUENa9ej6jt-55">
          <mxGeometry y="173" width="180" height="26" as="geometry" />
        </mxCell>
        <mxCell id="yqYqqijZ5hUENa9ej6jt-64" value="Calendar" style="text;align=left;verticalAlign=top;spacingLeft=4;spacingRight=4;overflow=hidden;rotatable=0;points=[[0,0.5],[1,0.5]];portConstraint=eastwest;fontStyle=0" vertex="1" parent="yqYqqijZ5hUENa9ej6jt-55">
          <mxGeometry y="199" width="180" height="26" as="geometry" />
        </mxCell>
        <mxCell id="yqYqqijZ5hUENa9ej6jt-65" value="CalendarService" style="text;align=left;verticalAlign=top;spacingLeft=4;spacingRight=4;overflow=hidden;rotatable=0;points=[[0,0.5],[1,0.5]];portConstraint=eastwest;fontStyle=0" vertex="1" parent="yqYqqijZ5hUENa9ej6jt-55">
          <mxGeometry y="225" width="180" height="26" as="geometry" />
        </mxCell>
        <mxCell id="yqYqqijZ5hUENa9ej6jt-66" value="EventService" style="text;align=left;verticalAlign=top;spacingLeft=4;spacingRight=4;overflow=hidden;rotatable=0;points=[[0,0.5],[1,0.5]];portConstraint=eastwest;fontStyle=0" vertex="1" parent="yqYqqijZ5hUENa9ej6jt-55">
          <mxGeometry y="251" width="180" height="26" as="geometry" />
        </mxCell>
        <mxCell id="yqYqqijZ5hUENa9ej6jt-67" value="HallService" style="text;align=left;verticalAlign=top;spacingLeft=4;spacingRight=4;overflow=hidden;rotatable=0;points=[[0,0.5],[1,0.5]];portConstraint=eastwest;fontStyle=0" vertex="1" parent="yqYqqijZ5hUENa9ej6jt-55">
          <mxGeometry y="277" width="180" height="26" as="geometry" />
        </mxCell>
        <mxCell id="yqYqqijZ5hUENa9ej6jt-68" value="RoomService" style="text;align=left;verticalAlign=top;spacingLeft=4;spacingRight=4;overflow=hidden;rotatable=0;points=[[0,0.5],[1,0.5]];portConstraint=eastwest;fontStyle=0" vertex="1" parent="yqYqqijZ5hUENa9ej6jt-55">
          <mxGeometry y="303" width="180" height="26" as="geometry" />
        </mxCell>
        <mxCell id="yqYqqijZ5hUENa9ej6jt-69" value="SingletonService" style="text;align=left;verticalAlign=top;spacingLeft=4;spacingRight=4;overflow=hidden;rotatable=0;points=[[0,0.5],[1,0.5]];portConstraint=eastwest;fontStyle=0" vertex="1" parent="yqYqqijZ5hUENa9ej6jt-55">
          <mxGeometry y="329" width="180" height="26" as="geometry" />
        </mxCell>
        <mxCell id="yqYqqijZ5hUENa9ej6jt-76" value="TypeAdapter" style="swimlane;fontStyle=0;align=center;verticalAlign=top;childLayout=stackLayout;horizontal=1;startSize=26;horizontalStack=0;resizeParent=1;resizeLast=0;collapsible=1;marginBottom=0;rounded=0;shadow=0;strokeWidth=1;" vertex="1" parent="1">
          <mxGeometry x="-240" y="240" width="100" height="110" as="geometry">
            <mxRectangle x="230" y="140" width="160" height="26" as="alternateBounds" />
          </mxGeometry>
        </mxCell>
        <mxCell id="yqYqqijZ5hUENa9ej6jt-80" value="" style="line;html=1;strokeWidth=1;align=left;verticalAlign=middle;spacingTop=-1;spacingLeft=3;spacingRight=3;rotatable=0;labelPosition=right;points=[];portConstraint=eastwest;" vertex="1" parent="yqYqqijZ5hUENa9ej6jt-76">
          <mxGeometry y="26" width="100" height="8" as="geometry" />
        </mxCell>
        <mxCell id="yqYqqijZ5hUENa9ej6jt-79" value="+ write()" style="text;align=left;verticalAlign=top;spacingLeft=4;spacingRight=4;overflow=hidden;rotatable=0;points=[[0,0.5],[1,0.5]];portConstraint=eastwest;fontStyle=0" vertex="1" parent="yqYqqijZ5hUENa9ej6jt-76">
          <mxGeometry y="34" width="100" height="26" as="geometry" />
        </mxCell>
        <mxCell id="yqYqqijZ5hUENa9ej6jt-86" value="+ read()" style="text;align=left;verticalAlign=top;spacingLeft=4;spacingRight=4;overflow=hidden;rotatable=0;points=[[0,0.5],[1,0.5]];portConstraint=eastwest;fontStyle=0" vertex="1" parent="yqYqqijZ5hUENa9ej6jt-76">
          <mxGeometry y="60" width="100" height="26" as="geometry" />
        </mxCell>
        <mxCell id="yqYqqijZ5hUENa9ej6jt-87" value="DoubleAdapter" style="swimlane;fontStyle=0;align=center;verticalAlign=top;childLayout=stackLayout;horizontal=1;startSize=26;horizontalStack=0;resizeParent=1;resizeLast=0;collapsible=1;marginBottom=0;rounded=0;shadow=0;strokeWidth=1;" vertex="1" parent="1">
          <mxGeometry x="-640" y="60" width="240" height="100" as="geometry">
            <mxRectangle x="230" y="140" width="160" height="26" as="alternateBounds" />
          </mxGeometry>
        </mxCell>
        <mxCell id="yqYqqijZ5hUENa9ej6jt-91" value="" style="line;html=1;strokeWidth=1;align=left;verticalAlign=middle;spacingTop=-1;spacingLeft=3;spacingRight=3;rotatable=0;labelPosition=right;points=[];portConstraint=eastwest;" vertex="1" parent="yqYqqijZ5hUENa9ej6jt-87">
          <mxGeometry y="26" width="240" height="8" as="geometry" />
        </mxCell>
        <mxCell id="yqYqqijZ5hUENa9ej6jt-92" value="+ write(out: JsonWriter, value:Double):void" style="text;align=left;verticalAlign=top;spacingLeft=4;spacingRight=4;overflow=hidden;rotatable=0;points=[[0,0.5],[1,0.5]];portConstraint=eastwest;fontStyle=0" vertex="1" parent="yqYqqijZ5hUENa9ej6jt-87">
          <mxGeometry y="34" width="240" height="26" as="geometry" />
        </mxCell>
        <mxCell id="yqYqqijZ5hUENa9ej6jt-97" value="+ read(in: JsonReader): Double" style="text;align=left;verticalAlign=top;spacingLeft=4;spacingRight=4;overflow=hidden;rotatable=0;points=[[0,0.5],[1,0.5]];portConstraint=eastwest;fontStyle=0" vertex="1" parent="yqYqqijZ5hUENa9ej6jt-87">
          <mxGeometry y="60" width="240" height="26" as="geometry" />
        </mxCell>
        <mxCell id="yqYqqijZ5hUENa9ej6jt-98" value="Extends" style="endArrow=block;endSize=16;endFill=0;html=1;rounded=0;entryX=0.038;entryY=0.139;entryDx=0;entryDy=0;entryPerimeter=0;exitX=1;exitY=1;exitDx=0;exitDy=0;" edge="1" parent="1" source="yqYqqijZ5hUENa9ej6jt-87" target="yqYqqijZ5hUENa9ej6jt-76">
          <mxGeometry x="-0.1859" y="-5" width="160" relative="1" as="geometry">
            <mxPoint x="-474" y="267" as="sourcePoint" />
            <mxPoint x="-855" y="2" as="targetPoint" />
            <mxPoint as="offset" />
          </mxGeometry>
        </mxCell>
        <mxCell id="yqYqqijZ5hUENa9ej6jt-99" value="IntegerAdapter" style="swimlane;fontStyle=0;align=center;verticalAlign=top;childLayout=stackLayout;horizontal=1;startSize=26;horizontalStack=0;resizeParent=1;resizeLast=0;collapsible=1;marginBottom=0;rounded=0;shadow=0;strokeWidth=1;" vertex="1" parent="1">
          <mxGeometry x="-640" y="190" width="240" height="100" as="geometry">
            <mxRectangle x="230" y="140" width="160" height="26" as="alternateBounds" />
          </mxGeometry>
        </mxCell>
        <mxCell id="yqYqqijZ5hUENa9ej6jt-100" value="" style="line;html=1;strokeWidth=1;align=left;verticalAlign=middle;spacingTop=-1;spacingLeft=3;spacingRight=3;rotatable=0;labelPosition=right;points=[];portConstraint=eastwest;" vertex="1" parent="yqYqqijZ5hUENa9ej6jt-99">
          <mxGeometry y="26" width="240" height="8" as="geometry" />
        </mxCell>
        <mxCell id="yqYqqijZ5hUENa9ej6jt-101" value="+ write(out: JsonWriter, value:Integer):void" style="text;align=left;verticalAlign=top;spacingLeft=4;spacingRight=4;overflow=hidden;rotatable=0;points=[[0,0.5],[1,0.5]];portConstraint=eastwest;fontStyle=0" vertex="1" parent="yqYqqijZ5hUENa9ej6jt-99">
          <mxGeometry y="34" width="240" height="26" as="geometry" />
        </mxCell>
        <mxCell id="yqYqqijZ5hUENa9ej6jt-102" value="+ read(in: JsonReader): Integer" style="text;align=left;verticalAlign=top;spacingLeft=4;spacingRight=4;overflow=hidden;rotatable=0;points=[[0,0.5],[1,0.5]];portConstraint=eastwest;fontStyle=0" vertex="1" parent="yqYqqijZ5hUENa9ej6jt-99">
          <mxGeometry y="60" width="240" height="26" as="geometry" />
        </mxCell>
        <mxCell id="yqYqqijZ5hUENa9ej6jt-103" value="LocalDateAdapter" style="swimlane;fontStyle=0;align=center;verticalAlign=top;childLayout=stackLayout;horizontal=1;startSize=26;horizontalStack=0;resizeParent=1;resizeLast=0;collapsible=1;marginBottom=0;rounded=0;shadow=0;strokeWidth=1;" vertex="1" parent="1">
          <mxGeometry x="-640" y="310" width="240" height="100" as="geometry">
            <mxRectangle x="230" y="140" width="160" height="26" as="alternateBounds" />
          </mxGeometry>
        </mxCell>
        <mxCell id="yqYqqijZ5hUENa9ej6jt-104" value="" style="line;html=1;strokeWidth=1;align=left;verticalAlign=middle;spacingTop=-1;spacingLeft=3;spacingRight=3;rotatable=0;labelPosition=right;points=[];portConstraint=eastwest;" vertex="1" parent="yqYqqijZ5hUENa9ej6jt-103">
          <mxGeometry y="26" width="240" height="8" as="geometry" />
        </mxCell>
        <mxCell id="yqYqqijZ5hUENa9ej6jt-105" value="+ write(out: JsonWriter,date:LocalDate):void" style="text;align=left;verticalAlign=top;spacingLeft=4;spacingRight=4;overflow=hidden;rotatable=0;points=[[0,0.5],[1,0.5]];portConstraint=eastwest;fontStyle=0" vertex="1" parent="yqYqqijZ5hUENa9ej6jt-103">
          <mxGeometry y="34" width="240" height="26" as="geometry" />
        </mxCell>
        <mxCell id="yqYqqijZ5hUENa9ej6jt-106" value="+ read(in: JsonReader): LocalDate" style="text;align=left;verticalAlign=top;spacingLeft=4;spacingRight=4;overflow=hidden;rotatable=0;points=[[0,0.5],[1,0.5]];portConstraint=eastwest;fontStyle=0" vertex="1" parent="yqYqqijZ5hUENa9ej6jt-103">
          <mxGeometry y="60" width="240" height="26" as="geometry" />
        </mxCell>
        <mxCell id="yqYqqijZ5hUENa9ej6jt-107" value="LocalTimeAdapter" style="swimlane;fontStyle=0;align=center;verticalAlign=top;childLayout=stackLayout;horizontal=1;startSize=26;horizontalStack=0;resizeParent=1;resizeLast=0;collapsible=1;marginBottom=0;rounded=0;shadow=0;strokeWidth=1;" vertex="1" parent="1">
          <mxGeometry x="-641" y="442" width="240" height="100" as="geometry">
            <mxRectangle x="230" y="140" width="160" height="26" as="alternateBounds" />
          </mxGeometry>
        </mxCell>
        <mxCell id="yqYqqijZ5hUENa9ej6jt-108" value="" style="line;html=1;strokeWidth=1;align=left;verticalAlign=middle;spacingTop=-1;spacingLeft=3;spacingRight=3;rotatable=0;labelPosition=right;points=[];portConstraint=eastwest;" vertex="1" parent="yqYqqijZ5hUENa9ej6jt-107">
          <mxGeometry y="26" width="240" height="8" as="geometry" />
        </mxCell>
        <mxCell id="yqYqqijZ5hUENa9ej6jt-109" value="+ write(out: JsonWriter,time:LocalTime):void" style="text;align=left;verticalAlign=top;spacingLeft=4;spacingRight=4;overflow=hidden;rotatable=0;points=[[0,0.5],[1,0.5]];portConstraint=eastwest;fontStyle=0" vertex="1" parent="yqYqqijZ5hUENa9ej6jt-107">
          <mxGeometry y="34" width="240" height="26" as="geometry" />
        </mxCell>
        <mxCell id="yqYqqijZ5hUENa9ej6jt-110" value="+ read(in: JsonReader): LocalTime" style="text;align=left;verticalAlign=top;spacingLeft=4;spacingRight=4;overflow=hidden;rotatable=0;points=[[0,0.5],[1,0.5]];portConstraint=eastwest;fontStyle=0" vertex="1" parent="yqYqqijZ5hUENa9ej6jt-107">
          <mxGeometry y="60" width="240" height="26" as="geometry" />
        </mxCell>
        <mxCell id="yqYqqijZ5hUENa9ej6jt-111" value="" style="endArrow=none;html=1;rounded=0;startArrow=diamondThin;startFill=0;startSize=18;exitX=0.007;exitY=-0.089;exitDx=0;exitDy=0;entryX=1;entryY=0.5;entryDx=0;entryDy=0;exitPerimeter=0;" edge="1" parent="1" source="yqYqqijZ5hUENa9ej6jt-102" target="yqYqqijZ5hUENa9ej6jt-71">
          <mxGeometry width="50" height="50" relative="1" as="geometry">
            <mxPoint x="-630" y="170" as="sourcePoint" />
            <mxPoint x="-730" y="280" as="targetPoint" />
          </mxGeometry>
        </mxCell>
        <mxCell id="yqYqqijZ5hUENa9ej6jt-112" value="" style="endArrow=none;html=1;rounded=0;startArrow=diamondThin;startFill=0;startSize=18;entryX=1;entryY=0.5;entryDx=0;entryDy=0;exitX=0;exitY=0.5;exitDx=0;exitDy=0;" edge="1" parent="1" source="yqYqqijZ5hUENa9ej6jt-105" target="yqYqqijZ5hUENa9ej6jt-23">
          <mxGeometry width="50" height="50" relative="1" as="geometry">
            <mxPoint x="-620" y="180" as="sourcePoint" />
            <mxPoint x="-720" y="285" as="targetPoint" />
          </mxGeometry>
        </mxCell>
        <mxCell id="yqYqqijZ5hUENa9ej6jt-113" value="" style="endArrow=none;html=1;rounded=0;startArrow=diamondThin;startFill=0;startSize=18;entryX=1;entryY=0.5;entryDx=0;entryDy=0;exitX=0;exitY=0.5;exitDx=0;exitDy=0;" edge="1" parent="1" source="yqYqqijZ5hUENa9ej6jt-109" target="yqYqqijZ5hUENa9ej6jt-74">
          <mxGeometry width="50" height="50" relative="1" as="geometry">
            <mxPoint x="-610" y="190" as="sourcePoint" />
            <mxPoint x="-710" y="295" as="targetPoint" />
          </mxGeometry>
        </mxCell>
        <mxCell id="yqYqqijZ5hUENa9ej6jt-114" value="Extends" style="endArrow=block;endSize=16;endFill=0;html=1;rounded=0;entryX=0;entryY=0.5;entryDx=0;entryDy=0;exitX=1;exitY=0.5;exitDx=0;exitDy=0;" edge="1" parent="1" source="yqYqqijZ5hUENa9ej6jt-101" target="yqYqqijZ5hUENa9ej6jt-79">
          <mxGeometry x="-0.1859" y="-5" width="160" relative="1" as="geometry">
            <mxPoint x="-390" y="170" as="sourcePoint" />
            <mxPoint x="-226" y="265" as="targetPoint" />
            <mxPoint as="offset" />
          </mxGeometry>
        </mxCell>
        <mxCell id="yqYqqijZ5hUENa9ej6jt-115" value="Extends" style="endArrow=block;endSize=16;endFill=0;html=1;rounded=0;entryX=0;entryY=0.5;entryDx=0;entryDy=0;exitX=1;exitY=0.5;exitDx=0;exitDy=0;" edge="1" parent="1" source="yqYqqijZ5hUENa9ej6jt-105" target="yqYqqijZ5hUENa9ej6jt-86">
          <mxGeometry x="-0.1859" y="-5" width="160" relative="1" as="geometry">
            <mxPoint x="-380" y="180" as="sourcePoint" />
            <mxPoint x="-216" y="275" as="targetPoint" />
            <mxPoint as="offset" />
          </mxGeometry>
        </mxCell>
        <mxCell id="yqYqqijZ5hUENa9ej6jt-116" value="Extends" style="endArrow=block;endSize=16;endFill=0;html=1;rounded=0;exitX=0.99;exitY=0.887;exitDx=0;exitDy=0;exitPerimeter=0;" edge="1" parent="1" source="yqYqqijZ5hUENa9ej6jt-109">
          <mxGeometry x="-0.1859" y="-5" width="160" relative="1" as="geometry">
            <mxPoint x="-370" y="190" as="sourcePoint" />
            <mxPoint x="-240" y="340" as="targetPoint" />
            <mxPoint as="offset" />
          </mxGeometry>
        </mxCell>
      </root>
    </mxGraphModel>
  </diagram>
</mxfile>
